PathFileType	4	(X/Y/Z)	/Users/itak/Documents/Research/Walk-IL/dataset/trc/00385_00012.trc
DataRate	CameraRate	NumFrames	NumMarkers	Units	OrigDataRate	OrigDataStartFrame	OrigNumFrames
100.000000	100.000000	4	55	mm	100.000000	450	600
Frame#	Time	RPSI			LPSI			L3			STRN			T10			C7			CLAV			RBAK			LBAK			LSHO			LUPA			LAEL			LAOL			LWTS			LWPS			LFRA			LIFD			LHPS			LHTS			RSHO			RUPA			RAEL			RAOL			RWTS			RWPS			RFRA			RIFD			RHTS			RHPS			RBHD			LFHD			RFHD			RHIP			RASI			LKNE			LTHI			LANK			LTIP			LTOE			LMT1			LMT5			LHEE			RKNE			RANK			RTIP			RTOE			RMT1			RMT5			RHEE			LASI			LBHD			LHIP			RTHI			*53			*54			
		X1	Y1	Z1	X2	Y2	Z2	X3	Y3	Z3	X4	Y4	Z4	X5	Y5	Z5	X6	Y6	Z6	X7	Y7	Z7	X8	Y8	Z8	X9	Y9	Z9	X10	Y10	Z10	X11	Y11	Z11	X12	Y12	Z12	X13	Y13	Z13	X14	Y14	Z14	X15	Y15	Z15	X16	Y16	Z16	X17	Y17	Z17	X18	Y18	Z18	X19	Y19	Z19	X20	Y20	Z20	X21	Y21	Z21	X22	Y22	Z22	X23	Y23	Z23	X24	Y24	Z24	X25	Y25	Z25	X26	Y26	Z26	X27	Y27	Z27	X28	Y28	Z28	X29	Y29	Z29	X30	Y30	Z30	X31	Y31	Z31	X32	Y32	Z32	X33	Y33	Z33	X34	Y34	Z34	X35	Y35	Z35	X36	Y36	Z36	X37	Y37	Z37	X38	Y38	Z38	X39	Y39	Z39	X40	Y40	Z40	X41	Y41	Z41	X42	Y42	Z42	X43	Y43	Z43	X44	Y44	Z44	X45	Y45	Z45	X46	Y46	Z46	X47	Y47	Z47	X48	Y48	Z48	X49	Y49	Z49	X50	Y50	Z50	X51	Y51	Z51	X52	Y52	Z52	X53	Y53	Z53	X54	Y54	Z54	X55	Y55	Z55	

451	4.5	-1003.825805664062	958.1923217773438	-41.17663955688477	-1020.601196289062	952.0255126953125	-173.4307250976562	-1006.217529296875	1032.733154296875	-97.09043884277344	-768.7822265625	1184.33203125	-117.9726028442383	-1013.836791992188	1135.123291015625	-96.73472595214844	-974.8746337890625	1383.536499023438	-102.642333984375	-822.5973510742188	1304.215454101562	-113.1283950805664	-1012.753601074219	1236.046264648438	-35.45227813720703	-1002.30078125	1350.912231445312	-202.220703125	-922.9588623046875	1363.239379882812	-264.9800720214844	-983.4557495117188	1253.030395507812	-318.5334167480469	-1028.83544921875	1065.741455078125	-336.5043640136719	-1054.722900390625	1051.376708984375	-255.0325927734375	-992.8825073242188	832.8935546875	-336.7495727539062	-1071.366943359375	839.4284057617188	-362.93212890625	-1049.468994140625	962.7138061523438	-348.7279052734375	-1046.99365234375	661.8038330078125	-325.0091247558594	-1079.957763671875	752.9905395507812	-359.2954711914062	-1016.763061523438	736.3163452148438	-359.3889465332031	-908.3745727539062	1359.507934570312	47.93815612792969	-920.2720336914062	1295.06298828125	107.1594924926758	-922.9332885742188	1035.66455078125	152.5761413574219	-944.7984619140625	1022.721862792969	59.65668869018555	-765.189697265625	846.0844116210938	124.7131729125977	-805.2322998046875	826.55517578125	185.4841461181641	-890.7928466796875	973.3687744140625	168.4666748046875	-728.1211547851562	677.5289306640625	130.4793548583984	-726.2462768554688	748.624267578125	146.781005859375	-781.7623291015625	740.3036499023438	186.4391174316406	-949.392578125	1560.192138671875	-23.80422782897949	-819.7285766601562	1586.019165039062	-173.3009796142578	-823.724365234375	1593.194213867188	-50.40539169311523	-917.56591796875	926.2775268554688	68.37769317626953	-787.834716796875	930.3232421875	8.28773307800293	-739.425537109375	481.2895812988281	-262.802001953125	-798.4570922851562	609.3400268554688	-282.4381103515625	-764.9393920898438	38.05413818359375	-209.671630859375	-746.879150390625	243.5878143310547	-246.6864776611328	-549.2490234375	48.10243225097656	-153.7563629150391	-626.4887084960938	47.89031982421875	-120.8171920776367	-636.2989501953125	44.84079742431641	-224.0650787353516	-799.055908203125	37.82476806640625	-149.5532836914062	-960.776611328125	441.9610595703125	22.50037574768066	-1279.188232421875	144.2516784667969	28.9205207824707	-1030.881469726562	332.8770141601562	17.80259132385254	-1185.909423828125	39.15239715576172	-49.21934127807617	-1229.796508789062	67.27081298828125	-73.79895782470703	-1232.677856445312	72.28007507324219	28.26968955993652	-1341.664428710938	190.6564331054688	-18.88113784790039	-824.609130859375	946.1632690429688	-250.6250610351562	-962.5197143554688	1546.598022460938	-184.9736938476562	-939.045654296875	952.4178466796875	-291.7735900878906	-870.346923828125	690.3268432617188	47.05892944335938	nan	nan	nan	nan	nan	nan	
452	4.51	-1016.27099609375	956.2340698242188	-40.14258193969727	-1032.777709960938	949.2730102539062	-172.40380859375	-1018.062805175781	1031.168090820312	-95.84766387939453	-779.2433471679688	1181.051147460938	-116.4546203613281	-1024.360717773438	1133.345947265625	-95.47417449951172	-984.1109619140625	1381.617431640625	-101.1384201049805	-832.3280639648438	1301.214599609375	-111.694450378418	-1022.789855957031	1234.390014648438	-33.70428848266602	-1011.820129394531	1349.02392578125	-200.8226470947266	-932.3319091796875	1360.884765625	-263.5678405761719	-992.665283203125	1250.445068359375	-317.0942077636719	-1037.725219726562	1063.062255859375	-335.199951171875	-1064.058715820312	1048.793701171875	-253.9081115722656	-1001.152770996094	830.4248046875	-335.1234130859375	-1079.698852539062	836.7449951171875	-361.5216064453125	-1058.046630859375	960.0203857421875	-347.3125305175781	-1054.876708984375	659.2530517578125	-323.4224243164062	-1088.030029296875	750.2628173828125	-357.8113708496094	-1024.7529296875	733.79736328125	-357.696533203125	-917.4188232421875	1357.261108398438	49.41850662231445	-929.3651733398438	1292.837768554688	108.7580032348633	-932.5350952148438	1033.47509765625	154.7923431396484	-954.5847778320312	1020.2822265625	61.88822555541992	-773.1046142578125	845.4874267578125	126.1376724243164	-812.5160522460938	825.67626953125	187.0263214111328	-899.7315673828125	971.4174194335938	170.5383911132812	-732.8596801757812	677.9393310546875	132.1290588378906	-732.2483520507812	749.1005249023438	148.3030853271484	-787.5197143554688	739.8558349609375	188.0930023193359	-958.473388671875	1557.822998046875	-22.57756996154785	-828.8721923828125	1583.567504882812	-172.0888366699219	-832.7745361328125	1590.800170898438	-49.2215461730957	-930.56396484375	924.3187866210938	69.96574401855469	-800.4303588867188	927.6012573242188	10.48282623291016	-744.9825439453125	481.4816284179688	-261.4481506347656	-806.2431640625	608.3110961914062	-280.8553771972656	-764.9729614257812	37.93586730957031	-209.6603088378906	-749.3894653320312	243.7062530517578	-246.0681304931641	-549.2940673828125	49.61031723022461	-154.0432281494141	-626.66796875	48.83903884887695	-120.8659973144531	-636.2528076171875	45.02580642700195	-223.9680633544922	-799.106201171875	37.59664154052734	-149.5185852050781	-977.3632202148438	440.3957824707031	23.61811637878418	-1289.596435546875	136.8416137695312	29.39581298828125	-1045.883178710938	330.0199279785156	18.37827301025391	-1188.1943359375	40.14643096923828	-49.3719482421875	-1235.237060546875	65.36318206787109	-73.91257476806641	-1238.838012695312	68.0496826171875	28.38398933410645	-1355.114868164062	180.5162963867188	-17.33675956726074	-836.6011962890625	943.3298950195312	-248.6242980957031	-971.59326171875	1544.153198242188	-183.6934509277344	-950.695556640625	949.6620483398438	-290.392333984375	-884.853271484375	688.328369140625	49.02533340454102	nan	nan	nan	nan	nan	nan	
453	4.52	-1028.980346679688	954.206787109375	-38.99985885620117	-1045.176879882812	946.447509765625	-171.2567749023438	-1030.169677734375	1029.705688476562	-94.57193756103516	-789.8317260742188	1177.732055664062	-114.9374923706055	-1035.040161132812	1131.688598632812	-94.19189453125	-993.384521484375	1379.799560546875	-99.62065887451172	-842.1043701171875	1298.1611328125	-110.2471618652344	-1032.931640625	1232.838745117188	-31.94095230102539	-1021.388244628906	1347.2099609375	-199.4497528076172	-941.7147827148438	1358.563598632812	-262.1643981933594	-1001.839660644531	1247.834228515625	-315.6988525390625	-1046.403198242188	1060.3095703125	-334.0636596679688	-1073.3427734375	1046.1259765625	-253.0204467773438	-1009.14404296875	827.8768310546875	-333.5053100585938	-1087.606811523438	834.0064086914062	-360.3376159667969	-1066.317504882812	957.2420043945312	-346.0846862792969	-1062.28466796875	656.6820678710938	-322.0362548828125	-1095.601440429688	747.4732666015625	-356.5761413574219	-1032.2666015625	731.2630004882812	-356.1282653808594	-926.46630859375	1355.034545898438	50.93004989624023	-938.4567260742188	1290.619750976562	110.3991012573242	-942.2003784179688	1031.284301757812	157.0685577392578	-964.4846801757812	1017.807250976562	64.19410705566406	-781.2034912109375	844.8297729492188	127.5902404785156	-820.0586547851562	824.72802734375	188.6295623779297	-908.7789916992188	969.4298706054688	172.6981964111328	-738.0585327148438	678.224365234375	133.7999572753906	-738.5813598632812	749.447509765625	149.8663787841797	-793.643310546875	739.3193359375	189.7838897705078	-967.5172729492188	1555.5341796875	-21.34033584594727	-837.9757080078125	1581.16455078125	-170.8725280761719	-841.781982421875	1588.44384765625	-48.03018569946289	-943.7546997070312	922.3507690429688	71.62667846679688	-813.2025146484375	924.9661254882812	12.6671724319458	-751.2725830078125	481.5875854492188	-260.2150268554688	-814.5601196289062	607.2620239257812	-279.3031616210938	-764.9992065429688	37.74400329589844	-209.6838073730469	-752.3084716796875	243.7920684814453	-245.5182495117188	-549.47607421875	51.7730598449707	-154.4159698486328	-626.9376831054688	50.1941032409668	-120.9388427734375	-636.18798828125	45.28940200805664	-223.8437805175781	-799.203369140625	37.28647613525391	-149.5277252197266	-993.2409057617188	438.8025817871094	24.97549247741699	-1299.496459960938	129.9978332519531	29.5894832611084	-1060.23046875	327.25927734375	19.02278518676758	-1189.646484375	41.01393127441406	-49.55309295654297	-1239.98974609375	64.40654754638672	-74.24252319335938	-1244.48583984375	64.74520874023438	28.33959197998047	-1367.762329101562	170.7818756103516	-16.24554252624512	-848.7929077148438	940.4921875	-246.6765289306641	-980.6471557617188	1541.816162109375	-182.4096221923828	-962.7199096679688	946.7593994140625	-288.90283203125	-899.13330078125	686.4932250976562	51.1248664855957	nan	nan	nan	nan	nan	nan	
454	4.53	-1041.903076171875	952.1767578125	-37.74174499511719	-1057.7451171875	943.6207885742188	-169.9797058105469	-1042.466796875	1028.383666992188	-93.29057312011719	-800.5299682617188	1174.473022460938	-113.4388122558594	-1045.866577148438	1130.208251953125	-92.89537048339844	-1002.713806152344	1378.138061523438	-98.08989715576172	-851.9295654296875	1295.142456054688	-108.7937164306641	-1043.182250976562	1231.44970703125	-30.16777420043945	-1031.026733398438	1345.522827148438	-198.0936584472656	-951.1366577148438	1356.341674804688	-260.7690734863281	-1011.023010253906	1245.271362304688	-314.3371887207031	-1054.89794921875	1057.554443359375	-333.0743408203125	-1082.595825195312	1043.435913085938	-252.3420867919922	-1016.919616699219	825.3118896484375	-331.8839721679688	-1095.114624023438	831.28759765625	-359.3681335449219	-1074.317993164062	954.450439453125	-345.0301818847656	-1069.183471679688	654.163818359375	-320.8736267089844	-1102.689575195312	744.701416015625	-355.5903930664062	-1039.307739257812	728.7975463867188	-354.6910705566406	-935.5298461914062	1352.894897460938	52.46892547607422	-947.5635986328125	1288.473510742188	112.07958984375	-951.8851318359375	1029.152709960938	159.3995056152344	-974.4964599609375	1015.363098144531	66.57293701171875	-789.5025634765625	844.1279907226562	129.0704803466797	-827.8640747070312	823.7376708984375	190.2825012207031	-917.9096069335938	967.4566650390625	174.9299468994141	-743.7987670898438	678.3695678710938	135.4673614501953	-745.2780151367188	749.6558837890625	151.4440460205078	-800.1774291992188	738.7127685546875	191.4907836914062	-976.5230712890625	1553.405029296875	-20.10993957519531	-847.0239868164062	1578.868408203125	-169.6653442382812	-850.7412719726562	1586.186279296875	-46.84750366210938	-957.05322265625	920.4661865234375	73.35984802246094	-826.0906372070312	922.52685546875	14.80912780761719	-758.3419189453125	481.599365234375	-259.1067810058594	-823.4300537109375	606.2125854492188	-277.7980651855469	-765.0205688476562	37.46921157836914	-209.7495727539062	-755.6686401367188	243.8459320068359	-245.0420379638672	-549.8628540039062	54.6840705871582	-154.8291168212891	-627.3387451171875	52.01233673095703	-121.0141143798828	-636.1270141601562	45.68117523193359	-223.6741943359375	-799.3547973632812	36.86392974853516	-149.5966186523438	-1008.402282714844	437.2871398925781	26.58675575256348	-1308.7978515625	123.7117385864258	29.47392845153809	-1073.820068359375	324.6535339355469	19.76386260986328	-1190.4658203125	41.69680023193359	-49.73299789428711	-1244.180908203125	64.10103607177734	-74.76775360107422	-1249.655029296875	62.26569366455078	28.13306427001953	-1379.40966796875	161.4943389892578	-15.75639915466309	-861.1182250976562	937.725341796875	-244.7974548339844	-989.6821899414062	1539.65625	-181.1363372802734	-975.1099853515625	943.7490234375	-287.303955078125	-913.1371459960938	684.9183349609375	53.36746215820312	nan	nan	nan	nan	nan	nan	
